<svg width="103" height="94" viewBox="0 0 103 94" fill="none" xmlns="http://www.w3.org/2000/svg">
<path d="M7 20.9547L20.5 6.5H40.97L51.5 16.7431L61.5 6L78.4225 3L96 20.9547V47.5542L51.5 91L7 47.5542V20.9547Z" fill="#E54A3F"/>
<rect y="20.0479" width="6.68246" height="27.1754" fill="black"/>
<rect x="40.9858" width="6.68246" height="20.9384" transform="rotate(90 40.9858 0)" fill="black"/>
<rect x="95.3364" y="20.0479" width="6.68246" height="27.1754" fill="black"/>
<rect x="81.9717" width="6.68246" height="20.9384" transform="rotate(90 81.9717 0)" fill="black"/>
<rect x="88.6543" y="6.68262" width="6.68246" height="6.68246" transform="rotate(90 88.6543 6.68262)" fill="black"/>
<rect width="6.68246" height="6.68246" transform="matrix(0 1 1 0 54.3511 6.68262)" fill="black"/>
<rect x="95.3364" y="13.3652" width="6.68246" height="6.68246" transform="rotate(90 95.3364 13.3652)" fill="black"/>
<rect width="6.68246" height="6.68246" transform="matrix(0 1 1 0 47.6685 13.3652)" fill="black"/>
<rect x="13.3652" y="13.3652" width="6.68246" height="6.68246" transform="rotate(90 13.3652 13.3652)" fill="black"/>
<rect width="6.68246" height="6.68246" transform="matrix(0 -1 -1 0 13.3652 53.9043)" fill="black"/>
<rect x="88.6543" y="53.9043" width="6.68246" height="6.68246" transform="rotate(-90 88.6543 53.9043)" fill="black"/>
<rect width="6.68246" height="6.68246" transform="matrix(0 -1 -1 0 40.0947 80.6348)" fill="black"/>
<rect x="61.479" y="80.6348" width="6.68246" height="6.68246" transform="rotate(-90 61.479 80.6348)" fill="black"/>
<rect width="6.68246" height="6.68246" transform="matrix(0 -1 -1 0 26.7305 67.2695)" fill="black"/>
<rect x="75.2896" y="67.2695" width="6.68246" height="6.68246" transform="rotate(-90 75.2896 67.2695)" fill="black"/>
<rect width="6.68246" height="6.68246" transform="matrix(0 -1 -1 0 53.46 94)" fill="black"/>
<rect width="6.68246" height="6.68246" transform="matrix(0 1 1 0 40.9858 6.68262)" fill="black"/>
<rect x="20.0479" y="6.68262" width="6.68246" height="6.68246" transform="rotate(90 20.0479 6.68262)" fill="black"/>
<rect width="6.68246" height="6.68246" transform="matrix(0 -1 -1 0 20.0479 60.5879)" fill="black"/>
<rect x="81.9717" y="60.5879" width="6.68246" height="6.68246" transform="rotate(-90 81.9717 60.5879)" fill="black"/>
<rect width="6.68246" height="6.68246" transform="matrix(0 -1 -1 0 46.7773 87.3174)" fill="black"/>
<rect x="54.7964" y="87.3174" width="6.68246" height="6.68246" transform="rotate(-90 54.7964 87.3174)" fill="black"/>
<rect width="6.68246" height="6.68246" transform="matrix(0 -1 -1 0 33.4126 73.9521)" fill="black"/>
<rect x="68.1616" y="73.9521" width="6.68246" height="6.68246" transform="rotate(-90 68.1616 73.9521)" fill="black"/>
<rect x="12.4746" y="27.1758" width="6.68246" height="6.68246" fill="#ECECEC"/>
<rect x="19.1562" y="20.4932" width="6.68246" height="6.68246" fill="#ECECEC"/>
<rect x="25.8389" y="13.8105" width="6.68246" height="6.68246" fill="#ECECEC"/>
</svg>
